<?xml version="1.0" encoding="UTF-8" standalone="no"?><!DOCTYPE svg PUBLIC "-//W3C//DTD SVG 1.1//EN" "http://www.w3.org/Graphics/SVG/1.1/DTD/svg11.dtd"><svg width="100%" height="100%" viewBox="0 0 16 16" version="1.1" xmlns="http://www.w3.org/2000/svg" xmlns:xlink="http://www.w3.org/1999/xlink" xml:space="preserve" xmlns:serif="http://www.serif.com/" style="fill-rule:evenodd;clip-rule:evenodd;stroke-linejoin:round;stroke-miterlimit:2;"><path d="M8,8.998c-0,-0 3.503,0.027 3.506,-3.993c0.003,-4.021 -3.503,-3.993 -3.503,-3.993c0,-0 4.921,-0.019 4.921,3.993c0,4.012 -4.924,3.993 -4.924,3.993Z" style="fill:#fa6e25;"/><path d="M8,8.998c-0,-0 3.393,0.027 3.396,-3.993c0.003,-4.021 -3.393,-3.993 -3.393,-3.993c0,-0 3.843,0.038 3.842,3.993c-0.002,3.955 -3.845,3.993 -3.845,3.993Z" style="fill:#f6da65;"/><path d="M8.16,2.977c-0.107,-0.009 -0.213,-0.009 -0.32,-0c-0.201,0.034 -0.297,0.153 -0.288,0.357c-0.293,0.079 -0.56,0.233 -0.775,0.448c-0.172,-0.11 -0.323,-0.087 -0.454,0.07c-0.06,0.088 -0.113,0.181 -0.159,0.277c-0.071,0.191 -0.016,0.334 0.166,0.428c-0.079,0.293 -0.079,0.602 -0,0.895c-0.182,0.094 -0.237,0.237 -0.166,0.429c0.046,0.096 0.099,0.188 0.159,0.276c0.131,0.157 0.282,0.18 0.454,0.07c0.215,0.215 0.482,0.369 0.775,0.448c-0.009,0.204 0.087,0.323 0.288,0.358c0.107,0.008 0.213,0.008 0.32,-0c0.201,-0.035 0.297,-0.154 0.288,-0.358c0.293,-0.079 0.56,-0.233 0.775,-0.448c0.172,0.11 0.323,0.087 0.454,-0.07c0.06,-0.088 0.113,-0.18 0.159,-0.276c0.071,-0.192 0.016,-0.335 -0.166,-0.429c0.079,-0.293 0.079,-0.602 0,-0.895c0.182,-0.094 0.237,-0.237 0.166,-0.428c-0.046,-0.096 -0.099,-0.189 -0.159,-0.277c-0.131,-0.157 -0.282,-0.18 -0.454,-0.07c-0.215,-0.215 -0.482,-0.369 -0.775,-0.448c0.009,-0.204 -0.087,-0.323 -0.288,-0.357Zm-0.16,0.786c0.685,0 1.241,0.557 1.241,1.242c0,0.685 -0.556,1.241 -1.241,1.241c-0.685,-0 -1.241,-0.556 -1.241,-1.241c-0,-0.685 0.556,-1.242 1.241,-1.242Z" style="fill:#f4eded;"/><path d="M4.977,8.998l5.737,6l-0.541,0l-5.811,-6l0.615,-0Z" style="fill:#37827f;"/><path d="M4.994,9.179l-0,5.819l-1,0l-0,-13.996l1,-0l-0,6.794l7.063,7.2l-1.436,-0.005l-5.627,-5.812Z" style="fill:#464d77;"/><rect x="3.674" y="1.012" width="0.32" height="13.987" style="fill:#37827f;"/></svg>